<?xml version="1.0" encoding="utf-8"?>
<!-- Generator: Adobe Illustrator 22.0.0, SVG Export Plug-In . SVG Version: 6.00 Build 0)  -->
<svg version="1.1" id="Layer_1" xmlns="http://www.w3.org/2000/svg" xmlns:xlink="http://www.w3.org/1999/xlink" x="0px" y="0px"
	 viewBox="0 0 474 97" style="enable-background:new 0 0 474 97;" xml:space="preserve">
<style type="text/css">
	.st0{fill:none;}
	.st1{fill:none;stroke:#000000;stroke-width:2;stroke-linecap:round;stroke-linejoin:round;stroke-miterlimit:10;}
	.st2{fill:none;stroke:#000000;stroke-linecap:round;stroke-linejoin:round;stroke-miterlimit:10;}
	.st3{fill:none;stroke:#DEC800;stroke-miterlimit:10;}
	.text{fill:none;stroke:#000000;stroke-width:.2;stroke-linecap:round;stroke-linejoin:round;stroke-miterlimit:10;}

	.st0 {
		-webkit-animation: backgroundColour 1s linear forwards 2s;
		-o-animation: backgroundColour 1s linear forwards 2s;
		-moz-animation: backgroundColour 1s linear forwards 2s;
		animation: backgroundColour 1s linear forwards 2s;
	}

	@keyframes backgroundColour{
		from {fill: transparent;}
		to {fill: #F5EED9;}
	}

	@-webkit-keyframes backgroundColour {
	from {fill: transparent;}
	to {fill: #F5EED9;}
	}

		.st1 {
				stroke-dasharray: 500;
				stroke-dashoffset: 0;
				-webkit-animation: dash 10s linear forwards;
				-o-animation: dash 10s linear forwards;
				-moz-animation: dash 10s linear forwards;
				animation: dash 10s linear forwards;
		}
		@-webkit-keyframes dash {
				from {
						stroke-dashoffset: 500;
				}
				to {
						stroke-dashoffset: 0;
				}
		}
		.st3 {
				stroke-dasharray: 50;
				stroke-dashoffset: 0;
				-webkit-animation: yellowBow 4s linear forwards, colorChange1 1s linear forwards 2s;
				-o-animation: yellowBow 4s linear forwards, colorChange1 1s linear forwards 2s;
				-moz-animation: yellowBow 4s linear forwards, colorChange1 1s linear forwards 2s;
				animation: yellowBow 4s linear forwards, colorChange1 1s linear forwards 2s;
		}
		@-webkit-keyframes yellowBow {
				from {
						stroke-dashoffset: 50;
				}
				to {
						stroke-dashoffset: 0;
				}
		}
		.longLine {
				stroke-dasharray: 500;
				stroke-dashoffset: 0;
				-webkit-animation: longLine 4s linear forwards;
				-o-animation: longLine 4s linear forwards;
				-moz-animation: longLine 4s linear forwards;
				animation: longLine 4s linear forwards;
		}
		@-webkit-keyframes longLine {
				from {
						stroke-dashoffset: 500;
				}
				to {
						stroke-dashoffset: 0;
				}
		}
		.longLongLine {
				stroke-dasharray: 1000;
				stroke-dashoffset: 0;
				-webkit-animation: longLongLine 2s linear forwards;
				-o-animation: longLongLine 2s linear forwards;
				-moz-animation: longLongLine 2s linear forwards;
				animation: longLongLine 2s linear forwards;
		}
		@-webkit-keyframes longLongLine {
				from {
						stroke-dashoffset: 1000;
				}
				to {
						stroke-dashoffset: 0;
				}
		}
		.text {
				stroke-dasharray: 500;
				stroke-dashoffset: 0;
				-webkit-animation: text 10s linear forwards, colorChange 1s linear forwards 2s;
				-o-animation: text 10s linear forwards, colorChange 1s linear forwards 2s;
				-moz-animation: text 10s linear forwards, colorChange 1s linear forwards 2s;
				animation: text 10s linear forwards, colorChange 1s linear forwards 2s;
		}
		@-webkit-keyframes text {
				from {
						stroke-dashoffset: 500;
				}
				to {
						stroke-dashoffset: 0;
				}
		}
		@keyframes colorChange {
				 from {fill: transparent}
				to {fill: #000000}
		}
		@-webkit-keyframes colorChange {
		from {fill: transparent}
		to {fill: #000000}
		}
		@keyframes colorChange1 {
			 from {fill: transparent}
			to {fill: #DEC800}
		}
		@-webkit-keyframes colorChange1 {
		from {fill: transparent}
		to {fill: #DEC800}
		}

</style>
<path class="st0" d="M462,97H12C5.4,97,0,91.6,0,85V12C0,5.4,5.4,0,12,0h450c6.6,0,12,5.4,12,12v73C474,91.6,468.6,97,462,97z"/>
<g>
	<path class="st1" d="M169.8,68.5"/>
	<path class="st1" d="M276.3,68.9c6.3,0,12.4,0,18.4,0"/>
	<path class="st1" d="M74.8,68.5"/>
	<line class="st2" x1="73.5" y1="68.5" x2="78.2" y2="68.5"/>
	<line class="st2" x1="108.4" y1="68.5" x2="113.2" y2="68.5"/>
	<line class="st2" x1="113.4" y1="68.5" x2="118.2" y2="68.5"/>
	<line class="st2" x1="91.9" y1="68.5" x2="96.6" y2="68.5"/>
	<line class="st2" x1="137.4" y1="68.5" x2="142.1" y2="68.5"/>
	<line class="st2" x1="162.9" y1="68" x2="167.6" y2="68"/>
	<line class="st2" x1="167.4" y1="68" x2="172.1" y2="68"/>
	<line class="st2" x1="268.9" y1="69.5" x2="273.6" y2="69.5"/>
	<line class="st2" x1="321.8" y1="70.8" x2="326.6" y2="70.8"/>
	<line class="st2" x1="326" y1="70.8" x2="330.7" y2="70.8"/>
	<g>
		<line class="st2" x1="192.5" y1="64.1" x2="196.5" y2="61.5"/>
		<line class="st2" x1="381.5" y1="65.3" x2="385.5" y2="62.7"/>
		<line class="st2" x1="295.5" y1="71.3" x2="295.5" y2="66.6"/>
		<path class="st1 longLine" d="M405.1,25.5c-27.6-0.1-55.1-0.1-82.7-0.1c-24.2,0.1-48.4,0.3-72.6,0.5c-2,0-4,0-6.6,0c0,2.2,0,3.8,0,5.5"/>
		<path class="st1" d="M271.2,31.5c0.1,12.5,0,25,0.1,37.5"/>
		<path class="st1" d="M324.2,30.6c0.1,17.7-0.2,25.1,0,39.7"/>
		<path class="st1" d="M154.3,30.2c5.2,12.5,10.3,24.9,15.5,37.4"/>
		<path class="st1" d="M294.8,31.5c-6.3,0-12.7,0-19.2,0c0,12.3,0,24.7,0,37.5"/>
		<path class="st1" d="M112.3,30.5c1.2,12.5,2.4,25,3.5,37.5"/>
		<path class="st1" d="M77.8,30.5c5.5,12.5,11,25,16.5,37.5"/>
		<path class="st1" d="M402.8,33.5c-0.6-0.6-3.3-3.3-7.5-3.4c-0.5,0-5.4,0-8.4,3.9c-0.4,0.5-2.3,3-2,6.3c0.5,4.4,4.5,5.6,12.1,14.2
			c3.4,3.8,4.3,5.5,4.3,7.4c0,2.7-1.3,6.3-4.3,7.5c-1.2,0.5-2.3,0.5-3,0.4"/>
		<path class="st1" d="M79.3,34c-1.1,11.3-2.3,22.6-3.4,33.9"/>
		<path class="st1" d="M108.7,30.5c0.7,12.5,1.4,25,2.1,37.5"/>
		<path class="st1" d="M95.5,63.4c-4.9-11.1-9.6-21.9-14.4-32.7"/>
		<path class="st1" d="M108.7,33.9c-4.2,9.7-8.6,19.3-13.2,29.5"/>
		<path class="st1" d="M328.3,30.6c0,13.8,0,26.8,0.1,39.7"/>
		<path class="st1" d="M339.3,51.8c1-0.2,3.4-0.8,5.4-2.7c0.1-0.1,0.3-0.3,0.6-0.6c0.2-0.2,2.7-3.1,2.7-6.8c0-3.5-2.4-6-3.4-7.1
			c-5.6-5.9-15-4.3-16.3-4.1"/>
		<path class="st1" d="M236.9,40.5c0,9.5,0,19,0,28.5"/>
		<path class="st1" d="M243.2,40.5c0,9.5,0,19,0,28.5"/>
		<path class="st1" d="M333.2,51.6c1,2.7,4.7,10.8,14.4,15c2.6,1.1,5,1.7,7.2,2"/>
		<path class="st1" d="M329.3,51.5c2.7,0.1,5.7,0.2,7.9,0.4"/>
		<path class="st1" d="M151.8,32.5c4.4,11.6,8.8,23.3,13.3,34.9"/>
		<path class="st1" d="M337.2,51.8c2.9,4.8,5.9,8.3,8.2,10.5c4.3,4.2,6.9,5.5,8.5,6c2,0.7,3.7,1,4.9,1.1"/>
		<path class="st1" d="M339.6,31.6c0.3,0.2,5.6,4.3,4.8,10.8c-0.8,6.5-6.8,9.3-7.2,9.5"/>
		<path class="st1" d="M276.3,51.1c3.8,0,7.7,0,11.5,0"/>
		<path class="st1" d="M153.3,37.5c-2.9,6.9-5.8,13.8-8.8,20.7c-1.4,3.3-2.9,6.6-4.4,9.8"/>
		<path class="st1" d="M147.3,53.5c4,0,8,0,12,0"/>
		<g>
			<path class="st3" d="M241.7,36.5c0,1-0.7,1.7-1.6,1.7l0,0c-0.9,0-1.6-0.8-1.6-1.7v-1.4c0-1,0.7-1.7,1.6-1.7l0,0
				c0.9,0,1.6,0.8,1.6,1.7V36.5z"/>
			<path class="st3" d="M231.3,35.6c0,1.3,0,1.9,0.2,2.8c0.2,0.9,0.5,1.1,0.8,1.2c0.3,0.1,1.6-0.1,2.8-0.7c1.2-0.6,1.7-0.9,2.3-1.4
				c0.3-0.3,0.5-0.5,0.6-0.6c0.1-0.3,0.1-0.6,0.1-1c0-0.4,0-0.7-0.3-1.1c-0.4-0.5-0.7-0.7-1.4-1.1c-0.7-0.4-1.4-0.8-2.1-1
				c-0.6-0.2-2-0.7-2.3-0.4c-0.2,0.2-0.5,1-0.6,1.8C231.3,34.9,231.3,35.6,231.3,35.6z"/>
			<path class="st3" d="M248.9,35.6c0,1.3,0,1.9-0.2,2.8c-0.2,0.9-0.5,1.1-0.8,1.2c-0.3,0.1-1.6-0.1-2.8-0.7
				c-1.2-0.6-1.7-0.9-2.3-1.4c-0.3-0.3-0.5-0.5-0.6-0.6c-0.1-0.3-0.1-0.6-0.1-1c0-0.4,0-0.7,0.3-1.1c0.4-0.5,0.7-0.7,1.4-1.1
				c0.7-0.4,1.4-0.8,2.1-1c0.6-0.2,2-0.7,2.3-0.4c0.2,0.2,0.5,1,0.6,1.8C248.9,34.9,248.9,35.6,248.9,35.6z"/>
		</g>
		<path class="st1" d="M392.6,30.5c-1.8,1-4.8,3-5.1,6c-0.4,3.5,2.9,6.6,6.3,9.7c4.4,4.1,9.1,6.7,10.9,11.3c0.1,0.3,0.2,0.7,0.3,1
			c0.7,3.2-0.4,6.7-2.6,8.9c-4.4,4.5-11.7,2-12.3,1.8c-3.4-1.2-5.4-3.6-6.2-4.7"/>
		<g>
			<path class="st1" d="M213.9,32.6c-0.6-0.6-3.3-3.3-7.5-3.4c-0.5,0-5.4,0-8.4,3.9c-0.4,0.5-2.3,3-2,6.3c0.5,4.4,4.5,5.6,12.1,14.2
				c3.4,3.8,4.3,5.5,4.3,7.4c0,2.7-1.3,6.3-4.3,7.5c-1.2,0.5-2.3,0.5-3,0.4"/>
			<path class="st1" d="M203.7,29.6c-1.8,1-4.8,3-5.1,6c-0.4,3.5,2.9,6.6,6.3,9.7c4.4,4.1,9.1,6.7,10.9,11.3c0.1,0.3,0.2,0.7,0.3,1
				c0.7,3.2-0.4,6.7-2.6,8.9c-4.4,4.5-11.7,2-12.3,1.8c-3.4-1.2-5.4-3.6-6.2-4.7"/>
		</g>
		<line class="st2" x1="106.3" y1="30" x2="111.1" y2="30"/>
		<line class="st2" x1="109.9" y1="30" x2="114.6" y2="30"/>
		<line class="st2" x1="78.9" y1="30" x2="83.6" y2="30"/>
		<line class="st2" x1="75.4" y1="30" x2="80.1" y2="30"/>
		<line class="st2" x1="151.9" y1="29.6" x2="156.6" y2="29.6"/>
		<line class="st2" x1="149.4" y1="32" x2="154.1" y2="32"/>
		<line class="st2" x1="212.1" y1="34.3" x2="216.1" y2="31.7"/>
		<line class="st2" x1="401.1" y1="35.2" x2="405.1" y2="32.6"/>
		<line class="st2" x1="268.8" y1="30.9" x2="273.6" y2="30.9"/>
		<line class="st2" x1="321.8" y1="29.9" x2="326.5" y2="29.9"/>
		<line class="st2" x1="288.5" y1="53.5" x2="288.5" y2="48.7"/>
		<line class="st2" x1="295.5" y1="33.8" x2="295.5" y2="29.1"/>
		<line class="st2" x1="405.7" y1="28" x2="405.7" y2="23.3"/>
		<path class="st1 longLine" d="M75.7,25.5c27.6-0.1,55.1-0.1,82.7-0.1c24.2,0.1,48.4,0.3,72.6,0.5c2,0,4,0,6.6,0c0,2.2,0,3.8,0,5.5"/>
		<line class="st2" x1="75.2" y1="28" x2="75.2" y2="23.3"/>
	</g>
</g>
<path class="st1 longLongLine" d="M78.5,7.1c-7.8,0-14,1.7-17.9,9.8c-5.9,0-11.5,0-17.2,0c0,2.5,0,4.5,0,6.4c-1.6,0-11.6,0.5-18.7,8.8
	c-5.5,6.5-5.8,13.8-5.9,16c-0.1,2.1-0.3,10.5,5.9,18.1c7,8.6,17,9.5,18.7,9.6h0.1c0,1.9,0,3.8,0,6.3c5.7,0,11.3,0,17.2,0
	c3.8,7.9,10,9.6,17.8,9.6c106.3-0.2,212.7-0.2,319,0c7.8,0,14-1.7,17.8-9.6c5.9,0,11.5,0,17.2,0c0-2.5,0-4.4,0-6.3v-0.4
	c1.7-0.1,11.7-1,18.7-9.6c6.2-7.6,6-16,5.9-18.1v0.1c-0.1-2.2-0.4-9.5-5.9-16c-7.1-8.3-17.1-8.8-18.7-8.8c0-1.9,0-3.8,0-6.3
	c-5.7,0-11.3,0-17.2,0c-3.8-7.9-10-9.6-17.8-9.6C291.2,7.3,184.8,7.3,78.5,7.1z"/>
<g>
	<g class="text">
		<path d="M329.8,83.2c-0.2,1-0.7,2.4-1,3c-0.5,0.1-1.9,0.5-3.2,0.5c-4.2,0-6.3-3.3-6.3-6.7c0-4.3,2.8-6.9,6.7-6.9
			c1.4,0,2.6,0.4,3.2,0.5c0.1,0.9,0.2,2.1,0.3,3.1l-0.5,0.1c-0.4-1.3-0.8-2.2-1.7-2.6c-0.5-0.2-1.1-0.3-1.8-0.3
			c-2.9,0-4.5,2.7-4.5,5.7c0,3.9,1.9,6.3,4.6,6.3c1.8,0,2.6-0.9,3.5-2.9L329.8,83.2z"/>
		<path d="M337.3,86.4v-0.6c1.1-0.2,1.3-0.4,1-1.1c-0.2-0.8-0.6-1.8-0.9-3h-3.8c-0.3,0.9-0.5,1.7-0.8,2.5c-0.4,1.3-0.1,1.5,1.3,1.7
			v0.6H330v-0.6c1.1-0.2,1.4-0.3,2-2.1l3.6-10.5l0.6-0.1c1.1,3.4,2.3,7.2,3.4,10.7c0.6,1.7,0.7,1.9,2,2.1v0.6H337.3z M335.5,75.7
			c-0.6,1.7-1.2,3.5-1.7,5.1h3.3L335.5,75.7z"/>
		<path d="M351.3,76.5c-0.2-0.6-0.4-1.3-0.6-1.7c-0.3-0.5-0.5-0.7-1.4-0.7h-1.8v9.7c0,1.6,0.1,1.8,1.8,1.9v0.6h-5.1v-0.6
			c1.6-0.1,1.8-0.3,1.8-1.9v-9.7h-1.6c-1,0-1.2,0.1-1.5,0.7c-0.2,0.4-0.4,0.9-0.6,1.6h-0.5c0.1-1.2,0.2-2.5,0.3-3.6h0.4
			c0.3,0.5,0.5,0.5,0.9,0.5h6.9c0.5,0,0.6-0.1,0.9-0.5h0.4c0,0.9,0.1,2.4,0.2,3.5L351.3,76.5z"/>
		<path d="M362.2,83.2c-0.1,0.5-0.6,2.6-0.8,3.2h-8.5v-0.6c1.6-0.1,1.8-0.3,1.8-2v-7.9c0-1.8-0.2-1.9-1.5-2v-0.6h5.4
			c1.6,0,2.3,0,2.5,0c0,0.5,0.1,2,0.2,3.1l-0.5,0.1c-0.2-0.7-0.3-1.1-0.5-1.5c-0.3-0.7-0.7-0.8-1.7-0.8h-1.7c-0.5,0-0.6,0.1-0.6,0.6
			v4.4h1.9c1.3,0,1.4-0.3,1.6-1.7h0.5v4.1h-0.5c-0.2-1.4-0.4-1.6-1.6-1.6h-1.9v4c0,1.4,0.4,1.5,1.3,1.5h1.6c1.1,0,1.2-0.2,1.6-0.7
			c0.3-0.4,0.7-1.2,0.9-1.8L362.2,83.2z"/>
		<path d="M373.8,86.5c-0.2,0-0.4,0-0.6,0c-1.3-0.1-2-0.5-2.7-1.7c-0.6-1-1.3-2.3-1.8-3.3c-0.4-0.6-0.6-0.8-1.5-0.8h-0.6v3.1
			c0,1.7,0.2,1.8,1.6,2v0.6h-4.7v-0.6c1.5-0.2,1.6-0.3,1.6-2v-8c0-1.7-0.2-1.8-1.6-1.9v-0.6h4.5c1.3,0,2.1,0.2,2.8,0.7
			c0.7,0.5,1.2,1.4,1.2,2.6c0,1.7-1,2.8-2.3,3.4c0.3,0.6,1.1,2,1.6,2.9c0.6,1.1,1,1.6,1.4,2.1c0.5,0.6,0.9,0.8,1.3,0.9L373.8,86.5z
			 M367.4,80c0.9,0,1.5-0.2,1.9-0.6c0.7-0.6,1-1.4,1-2.5c0-2.1-1.2-2.9-2.6-2.9c-0.5,0-0.8,0.1-0.9,0.2c-0.2,0.1-0.2,0.3-0.2,0.9V80
			H367.4z"/>
		<path d="M374.2,86.4v-0.6c1.4-0.2,1.6-0.3,1.6-2v-7.9c0-1.7-0.1-1.8-1.6-2v-0.6h4.7v0.6c-1.5,0.2-1.6,0.3-1.6,2v7.9
			c0,1.7,0.1,1.8,1.6,2v0.6H374.2z"/>
		<path d="M392.6,73.9c-1.1,0.1-1.5,0.3-1.5,1.3c0,0.6-0.1,1.5-0.1,3.3v8h-0.7l-7.5-10.5v5c0,1.8,0.1,2.7,0.1,3.3
			c0,1,0.5,1.3,1.7,1.4v0.6h-4.3v-0.6c1.1-0.1,1.5-0.4,1.6-1.4c0.1-0.6,0.1-1.5,0.1-3.4V76c0-0.6,0-0.9-0.4-1.3
			c-0.3-0.5-0.7-0.6-1.6-0.7v-0.6h2.6l7.4,10.1v-4.9c0-1.9,0-2.7-0.1-3.3c-0.1-0.9-0.5-1.2-1.9-1.3v-0.6h4.3V73.9z"/>
		<path d="M405.3,80.9c-1.1,0.2-1.2,0.3-1.2,1.5V84c0,0.7,0,1.4,0.1,1.9c-1.1,0.3-2.5,0.7-3.9,0.7c-3.9,0-6.5-2.8-6.5-6.8
			c0-4.3,3-6.7,6.5-6.7c1.9,0,3.1,0.5,3.6,0.5c0,0.7,0.1,2,0.3,3.2l-0.5,0.1c-0.4-1.7-0.9-2.5-2.1-2.9c-0.4-0.2-1-0.2-1.6-0.2
			c-2.7,0-4.5,2-4.5,5.8c0,3.2,1.4,6.3,4.9,6.3c0.6,0,1.1-0.1,1.5-0.3c0.4-0.2,0.6-0.5,0.6-1.3v-1.6c0-1.5-0.1-1.6-1.8-1.8v-0.6h4.5
			V80.9z"/>
	</g>
</g>
</svg>
