<?xml version="1.0" encoding="utf-8"?>
<!-- Generator: Adobe Illustrator 22.0.0, SVG Export Plug-In . SVG Version: 6.00 Build 0)  -->
<svg version="1.1" id="Layer_1" xmlns="http://www.w3.org/2000/svg" xmlns:xlink="http://www.w3.org/1999/xlink" x="0px" y="0px"
	 viewBox="0 0 474 97" style="enable-background:new 0 0 474 97;" xml:space="preserve">
<style type="text/css">
	.st0{fill:none;stroke:#000000;stroke-width:2;stroke-linecap:round;stroke-linejoin:round;stroke-miterlimit:10;}
	.st1{fill:none;stroke:#000000;stroke-linecap:round;stroke-linejoin:round;stroke-miterlimit:10;}
	.st2{fill:none;stroke:#DEC800;stroke-miterlimit:10;}
	.st3{fill:#FFFFFF;}
</style>
<g>
	<path class="st0" d="M167.2,55.8"/>
	<path class="st0" d="M272.9,56.2c6.6,0,12.9,0,19.2,0"/>
	<path class="st0" d="M72.2,55.8"/>
	<line class="st1" x1="70.9" y1="55.8" x2="75.6" y2="55.8"/>
	<line class="st1" x1="105.8" y1="55.8" x2="110.6" y2="55.8"/>
	<line class="st1" x1="110.8" y1="55.8" x2="115.6" y2="55.8"/>
	<line class="st1" x1="89.3" y1="55.8" x2="94" y2="55.8"/>
	<line class="st1" x1="134.8" y1="55.8" x2="139.5" y2="55.8"/>
	<line class="st1" x1="160.3" y1="55.3" x2="165" y2="55.3"/>
	<line class="st1" x1="164.8" y1="55.3" x2="169.5" y2="55.3"/>
	<line class="st1" x1="189.9" y1="51.4" x2="193.9" y2="48.8"/>
	<line class="st1" x1="378.9" y1="52.6" x2="382.9" y2="50"/>
	<line class="st1" x1="266.3" y1="56.8" x2="271" y2="56.8"/>
	<line class="st1" x1="319.2" y1="58.1" x2="324" y2="58.1"/>
	<line class="st1" x1="323.4" y1="58.1" x2="328.1" y2="58.1"/>
	<line class="st1" x1="292.9" y1="58.6" x2="292.9" y2="53.9"/>
	<g>
		<path class="st0" d="M402.5,12.8c-27.6-0.1-55.1-0.1-82.7-0.1c-24.2,0.1-48.4,0.3-72.6,0.5c-2,0-4,0-6.6,0c0,2.2,0,3.8,0,5.5"/>
		<path class="st0" d="M268.6,18.8c0.1,12.5,0,25,0.1,37.5"/>
		<path class="st0" d="M321.6,17.9c0.1,17.7-0.2,25.1,0,39.7"/>
		<path class="st0" d="M151.7,17.5c5.2,12.5,10.3,24.9,15.5,37.4"/>
		<path class="st0" d="M292.2,18.8c-6.3,0-12.7,0-19.2,0c0,12.3,0,24.7,0,37.5"/>
		<path class="st0" d="M109.7,17.8c1.2,12.5,2.4,25,3.5,37.5"/>
		<path class="st0" d="M75.2,17.8c5.5,12.5,11,25,16.5,37.5"/>
		<path class="st0" d="M400.2,20.8c-0.6-0.6-3.3-3.3-7.5-3.4c-0.5,0-5.4,0-8.4,3.9c-0.4,0.5-2.3,3-2,6.3c0.5,4.4,4.5,5.6,12.1,14.2
			c3.4,3.8,4.3,5.5,4.3,7.4c0,2.7-1.3,6.3-4.3,7.5c-1.2,0.5-2.3,0.5-3,0.4"/>
		<path class="st0" d="M76.7,21.3c-1.1,11.3-2.3,22.6-3.4,33.9"/>
		<path class="st0" d="M106.1,17.8c0.7,12.5,1.4,25,2.1,37.5"/>
		<path class="st0" d="M92.9,50.7C88,39.6,83.3,28.8,78.5,18"/>
		<path class="st0" d="M106.1,21.2c-4.2,9.7-8.6,19.3-13.2,29.5"/>
		<path class="st0" d="M325.7,17.9c0,13.8,0,26.8,0.1,39.7"/>
		<path class="st0" d="M336.7,39.1c1-0.2,3.4-0.8,5.4-2.7c0.1-0.1,0.3-0.3,0.6-0.6c0.2-0.2,2.7-3.1,2.7-6.8c0-3.5-2.4-6-3.4-7.1
			c-5.6-5.9-15-4.3-16.3-4.1"/>
		<path class="st0" d="M234.3,27.8c0,9.5,0,19,0,28.5"/>
		<path class="st0" d="M240.6,27.8c0,9.5,0,19,0,28.5"/>
		<path class="st0" d="M330.6,38.9c1,2.7,4.7,10.8,14.4,15c2.6,1.1,5,1.7,7.2,2"/>
		<path class="st0" d="M326.7,38.8c2.7,0.1,5.7,0.2,7.9,0.4"/>
		<path class="st0" d="M149.2,19.8c4.4,11.6,8.8,23.3,13.3,34.9"/>
		<path class="st0" d="M334.6,39.1c2.9,4.8,5.9,8.3,8.2,10.5c4.3,4.2,6.9,5.5,8.5,6c2,0.7,3.7,1,4.9,1.1"/>
		<path class="st0" d="M337,18.9c0.3,0.2,5.6,4.3,4.8,10.8c-0.8,6.5-6.8,9.3-7.2,9.5"/>
		<path class="st0" d="M273.7,38.4c3.8,0,7.7,0,11.5,0"/>
		<path class="st0" d="M150.7,24.8c-2.9,6.9-5.8,13.8-8.8,20.7c-1.4,3.3-2.9,6.6-4.4,9.8"/>
		<path class="st0" d="M144.7,40.8c4,0,8,0,12,0"/>
		<g>
			<path class="st2" d="M239.1,23.8c0,1-0.7,1.7-1.6,1.7l0,0c-0.9,0-1.6-0.8-1.6-1.7v-1.4c0-1,0.7-1.7,1.6-1.7l0,0
				c0.9,0,1.6,0.8,1.6,1.7V23.8z"/>
			<path class="st2" d="M228.7,22.9c0,1.3,0,1.9,0.2,2.8c0.2,0.9,0.5,1.1,0.8,1.2c0.3,0.1,1.6-0.1,2.8-0.7c1.2-0.6,1.7-0.9,2.3-1.4
				c0.3-0.3,0.5-0.5,0.6-0.6c0.1-0.3,0.1-0.6,0.1-1c0-0.4,0-0.7-0.3-1.1c-0.4-0.5-0.7-0.7-1.4-1.1c-0.7-0.4-1.4-0.8-2.1-1
				c-0.6-0.2-2-0.7-2.3-0.4c-0.2,0.2-0.5,1-0.6,1.8C228.7,22.2,228.7,22.9,228.7,22.9z"/>
			<path class="st2" d="M246.3,22.9c0,1.3,0,1.9-0.2,2.8c-0.2,0.9-0.5,1.1-0.8,1.2c-0.3,0.1-1.6-0.1-2.8-0.7
				c-1.2-0.6-1.7-0.9-2.3-1.4c-0.3-0.3-0.5-0.5-0.6-0.6c-0.1-0.3-0.1-0.6-0.1-1c0-0.4,0-0.7,0.3-1.1c0.4-0.5,0.7-0.7,1.4-1.1
				c0.7-0.4,1.4-0.8,2.1-1c0.6-0.2,2-0.7,2.3-0.4c0.2,0.2,0.5,1,0.6,1.8C246.3,22.2,246.3,22.9,246.3,22.9z"/>
		</g>
		<path class="st0" d="M390,17.8c-1.8,1-4.8,3-5.1,6c-0.4,3.5,2.9,6.6,6.3,9.7c4.4,4.1,9.1,6.7,10.9,11.3c0.1,0.3,0.2,0.7,0.3,1
			c0.7,3.2-0.4,6.7-2.6,8.9c-4.4,4.5-11.7,2-12.3,1.8c-3.4-1.2-5.4-3.6-6.2-4.7"/>
		<g>
			<path class="st0" d="M211.3,19.9c-0.6-0.6-3.3-3.3-7.5-3.4c-0.5,0-5.4,0-8.4,3.9c-0.4,0.5-2.3,3-2,6.3c0.5,4.4,4.5,5.6,12.1,14.2
				c3.4,3.8,4.3,5.5,4.3,7.4c0,2.7-1.3,6.3-4.3,7.5c-1.2,0.5-2.3,0.5-3,0.4"/>
			<path class="st0" d="M201.1,16.9c-1.8,1-4.8,3-5.1,6c-0.4,3.5,2.9,6.6,6.3,9.7c4.4,4.1,9.1,6.7,10.9,11.3c0.1,0.3,0.2,0.7,0.3,1
				c0.7,3.2-0.4,6.7-2.6,8.9c-4.4,4.5-11.7,2-12.3,1.8c-3.4-1.2-5.4-3.6-6.2-4.7"/>
		</g>
		<line class="st1" x1="103.7" y1="17.3" x2="108.5" y2="17.3"/>
		<line class="st1" x1="107.3" y1="17.3" x2="112" y2="17.3"/>
		<line class="st1" x1="76.3" y1="17.3" x2="81" y2="17.3"/>
		<line class="st1" x1="72.8" y1="17.3" x2="77.5" y2="17.3"/>
		<line class="st1" x1="149.3" y1="16.9" x2="154" y2="16.9"/>
		<line class="st1" x1="146.8" y1="19.3" x2="151.5" y2="19.3"/>
		<line class="st1" x1="209.5" y1="21.6" x2="213.5" y2="19"/>
		<line class="st1" x1="398.5" y1="22.5" x2="402.5" y2="19.9"/>
		<line class="st1" x1="266.2" y1="18.2" x2="271" y2="18.2"/>
		<line class="st1" x1="319.2" y1="17.2" x2="323.9" y2="17.2"/>
		<line class="st1" x1="285.9" y1="40.8" x2="285.9" y2="36"/>
		<line class="st1" x1="292.9" y1="21.1" x2="292.9" y2="16.4"/>
		<line class="st1" x1="403.1" y1="15.3" x2="403.1" y2="10.6"/>
		<path class="st0" d="M73.1,12.8c27.6-0.1,55.1-0.1,82.7-0.1c24.2,0.1,48.4,0.3,72.6,0.5c2,0,4,0,6.6,0c0,2.2,0,3.8,0,5.5"/>
		<line class="st1" x1="72.6" y1="15.3" x2="72.6" y2="10.6"/>
	</g>
</g>
<g>
	<path class="st0" d="M432.5,75.8c0,1.9,0,3.8,0,6.3c-5.7,0-11.3,0-17.2,0c-3.8,7.9-10,9.6-17.8,9.6c-106.3-0.2-212.7-0.2-319,0"/>
	<path class="st0" d="M43.4,23.3c-1.6,0-11.6,0.5-18.7,8.8c-5.5,6.5-5.8,13.8-5.9,16"/>
	<path class="st0" d="M43.5,75.8c0,1.9,0,3.8,0,6.3c5.7,0,11.3,0,17.2,0c3.8,7.9,10,9.6,17.8,9.6"/>
	<g>
		<path class="st0" d="M432.5,23c0-1.9,0-3.8,0-6.3c-5.7,0-11.3,0-17.2,0c-3.8-7.9-10-9.6-17.8-9.6c-106.3,0.2-212.7,0.2-319,0"/>
		<path class="st0" d="M43.5,23c0-1.9,0-3.8,0-6.3c5.7,0,11.3,0,17.2,0c3.8-7.9,10-9.6,17.8-9.6"/>
	</g>
	<path class="st0" d="M43.4,75.8c-1.7-0.1-11.7-1-18.7-9.6c-6.2-7.6-6-16-5.9-18.1"/>
	<path class="st0" d="M432.5,23c1.6,0,11.6,0.5,18.7,8.8c5.5,6.5,5.8,13.8,5.9,16"/>
	<path class="st0" d="M432.5,75.4c1.7-0.1,11.7-1,18.7-9.6c6.2-7.6,6-16,5.9-18.1"/>
</g>
<g>
	<path class="st0" d="M307,69c-1.1-3.2-4-3.8-6.4-2.8c-0.3,0.1-2.1,0.8-3,2.7c-0.6,1.1-0.6,2.1-0.7,3.1c0,1.1-0.1,2.5,0.7,4.1
		c0.3,0.6,1.1,2.1,2.9,2.9c1,0.4,1.8,0.4,2,0.4c2.9,0,4.8-2.6,5-2.9"/>
	<path class="st0" d="M380.6,72.9c-2.1,0-3.6,0-5.1,0"/>
	<path class="st0" d="M380.6,78c0-1.5,0-3,0-4.7"/>
	<path class="st0" d="M380.8,69.9c-0.1-0.4-0.5-2.1-2.1-3.1c-2.3-1.5-5,0-5.4,0.2c-2.5,1.4-3.4,4.4-3.2,6.7c0.1,0.5,0.4,3.9,3.3,5.4
		c2.1,1.1,4.8,0.8,6.8-0.8"/>
	<path class="st0" d="M341,66.1c0,5.3,0,9.4,0,13.4"/>
	<path class="st0" d="M341,65.8c3-1,5.9,0.6,6.4,2.7c0.3,1.5-0.6,3.3-2.4,4.3"/>
	<path class="st0" d="M352.8,65.5c0,4.7,0,9.3,0,14"/>
	<path class="st0" d="M330,67.5c0,3.7,0,7.3,0,11.5c3.1,0,5.8,0,8.5,0"/>
	<path class="st0" d="M323,67c0,4.2,0,8.3,0,12.5"/>
	<path class="st0" d="M366.5,65.5c0,4.8,0,9.6,0,14.3"/>
	<path class="st0" d="M357,65.5c0,4.7,0,9.3,0,14"/>
	<path class="st0" d="M357,65.5c3.2,4.8,6.3,9.6,9.5,14.3"/>
	<path class="st0" d="M338.5,66.5c-6.7-0.2-13.3-0.3-20-0.5"/>
	<path class="st0" d="M314.4,66.5c-1.8,4.2-3.6,8.3-5.4,12.5"/>
	<path class="st0" d="M314,65.5c1.7,4.7,3.3,9.3,5,14"/>
	<path class="st0" d="M342.7,73.2c0.4,0.9,1.2,2.4,2.5,3.9c0.8,1,1.6,1.7,2.1,2.2"/>
	<path class="st0" d="M342,72.7c1,0,1.9,0,3,0"/>
	<path class="st0" d="M331,72.5c2.2,0,4.3,0,6.5,0"/>
	<path class="st0" d="M316.5,74c-1.7,0-3.3,0-5,0"/>
</g>
<path d="M245,77c0,0.5,0,1,0,1.9c-2.5,0.3-5.1,0.1-7.7,0.1c1.1-4.4,1.1-8.5,0.1-12.8c2.3,0,4.9,0,7.5,0c0,0.9,0,1.7,0,2.4
	c0.4-0.4-0.2,1-0.4,0.4c-0.2-0.6-0.5-1.1-0.7-1.7c-1.1-0.5-2.2-0.2-3.6-0.2c0,1.6,0,3.1,0,4.7c0.8,0.5,1.6,0.2,2.3,0.2
	c0.9-0.3,0-1.7,1.1-1.8c0.7,1.1,0.2,2.3,0.3,3.4c-1.3,0.4-2.4-1.2-3.9-0.2c0,1.4,0,2.9,0,4.4C241.9,78.4,243.5,78.1,245,77z"/>
<path d="M253,72c-0.2-0.9,0.9-0.9,1-1.6c0.2-1.4-1.6-2-1.4-3.4c-0.7,0-1.3,0-2.4,0c-0.1,3.9-0.8,7.8,0.6,11.7
	c-1.2,0.6-2.4,0.1-4,0.2c0.7-0.7,1-1.1,1.3-1.5c-0.3-3.4,0.4-6.8-0.4-10.3c-0.1-0.3-0.4-0.5-0.8-0.9c2.4,0,4.7,0,6.9,0
	c0.4,0.4,0.7,0.7,1.2,1.2c0,1.3,0,2.8,0,4.2C254.3,72.3,253.6,71.9,253,72z"/>
<path d="M267.2,77.8c0.7,0.4,1.5,0,1.8,0.9c-1.2,0.6-2.5,0.4-3.7,0.2c1.4-4.3,0.8-8.6,0.3-13.1c4.5,2.1,5.5,7.4,9.4,9.8
	c0,1,0.3,2.1-0.2,3.2c-0.3,0.2-0.5,0.1-0.7-0.2c-2.1-2.9-3.5-6.4-6.9-8.5C267.2,72.6,267.2,75,267.2,77.8z"/>
<path d="M258.5,66.1c1.1-0.1,2.2-0.3,3.3,0.2c-1.2,3-1.2,9.5,0,12.6c-1.2,0-2.3,0-3.4,0C259.3,74.7,259.3,70.6,258.5,66.1z"/>
<path d="M230,67c-1.6-0.1-2.8-0.2-3.5,0.9c-0.5-0.3-0.5-0.8-0.5-1.8c2.8-0.3,5.7-0.1,8.4-0.2c0.7,0.4,0.6,0.9,0.6,1.8
	c-1.3-0.2-2.4-1.4-3.9-0.5c0,3.3,0,6.8,0,10.5c0.2,0.5,1.5-0.2,1.9,1c-1.6,0-3.2,0-4.8,0c-0.1-1.1,0.8-0.6,1.7-1
	C230.1,74.3,230,70.7,230,67z"/>
<path d="M280,67.2c0,3.3,0,5.8,0,8.2c1.1,1.4,2.3,2.6,4,3.2c-0.6,0.8-1.5,0.3-2.3,0.6c-1.1-1.2-2.2-2.4-3.6-4c0-1.5,0-3.6,0-5.7
	c0.2,0.2,0.4,0.4,0.6,0.5C279,69.2,279.4,68.4,280,67.2z"/>
<path d="M256.8,78.7c-3.7-0.1-3.4-3.9-5.9-5.2c1.4-1.2,1.1-1,2.1-0.1C254.7,74.9,255.1,77.3,256.8,78.7z"/>
<path d="M285.1,73.3c1.3-0.4,2.5-0.4,3.9,0c-1.7,1.7-0.6,3.7-1.1,5.4c-0.8,0.6-1.6,0.2-2.9,0.4c0.5-1.2,1.4-1.8,2.1-2.5
	C287.3,74.9,285.5,74.5,285.1,73.3z"/>
<path d="M272.6,66.1c1.9-0.1,3.2-0.5,4.4,0.3c-0.9,0.5-1.8,1-2.7,1.4C273.9,67.4,273.5,67,272.6,66.1z"/>
<path d="M285.3,66.1c0.8,0,1.5,0,2.3,0c0.8,1,0.1,1.8,0.3,2.8C286.7,68.1,286.9,66.1,285.3,66.1z"/>
<path d="M216.7,78.5l-1.6,0.2c0.8-2.2,1.4-4.1,1.8-5.3c0.5-1.7,0.7-2.6,1.3-4c0.7-1.8,1.7-4.2,2.3-4.1c2.7,0.4,6.3,13,5.4,13.4
	c-0.1,0-0.3,0-0.6,0.2c-0.2,0.1-0.4,0.3-0.7,0.2c0,0,0,0,0,0c-0.3-0.1-0.3-1-0.3-1.2c0-1.2-2.2-10.3-3.9-10.3
	C219,67.5,217.5,74.1,216.7,78.5z"/>
<path d="M280.3,67.2c1.7-1.5,2.6-1.5,3.7-0.8C283.1,67.5,282,66.8,280.3,67.2z"/>
<path d="M281,67c0,0.7-0.3,1-1,1C280,67.3,280.3,67,281,67z"/>
<path d="M245,77c-0.1-0.5,0.1-0.8,0.6-0.9c0.1,0,0.3,0.2,0.3,0.3C245.8,76.9,245.5,77.1,245,77z"/>
<g>
	<ellipse cx="206.5" cy="72.6" rx="6.6" ry="6.8"/>
	<ellipse class="st3" cx="207.3" cy="72.6" rx="6.4" ry="5.9"/>
</g>
</svg>
